
<svg xmlns:dc="http://purl.org/dc/elements/1.1/"
   xmlns:cc="http://creativecommons.org/ns#"
   xmlns:rdf="http://www.w3.org/1999/02/22-rdf-syntax-ns#"
   xmlns:svg="http://www.w3.org/2000/svg"
   xmlns="http://www.w3.org/2000/svg"
   xmlns:sodipodi="http://sodipodi.sourceforge.net/DTD/sodipodi-0.dtd"
   xmlns:inkscape="http://www.inkscape.org/namespaces/inkscape">
  <g
     transform="matrix(1.7423355,0,0,2.482877,-0.26597106,-15.023345)"
     id="g35">
    <g
       transform="matrix(1.0516728,0,0,0.93967258,6.4419091,-1.0079317)"
       id="g50">
      <g
         transform="matrix(1.0826155,0,0.2777795,0.83723816,-15.096421,4.9974539)"
         id="g39">
        <g
           transform="matrix(1.0377524,0,0.00968658,1,-0.53892878,0)"
           id="g88">
          <g
             transform="matrix(0.923689,0,-0.30646221,1.1944033,9.519678,-0.02645198)"
             id="g34">
            <rect
               style="fill:#008000;stroke-width:0.579409"
               id="rect19"
               width="3.1984119"
               height="25.054226"
               x="24.343466"
               y="32.339497" />
            <path
               fill="#db7093"
               d="M 21.560429,26.024312 C -6.8220752,23.688931 9.7343853,14.347407 12.099594,12.012027 14.464803,9.6766458 23.925637,-6.6710199 26.290846,21.35355 28.656054,-6.6710199 38.116889,9.6766458 40.482098,12.012027 c 2.365208,2.33538 18.921668,11.676904 -9.460835,14.012285 28.382503,2.33538 11.826043,11.676904 9.460835,14.012284 C 38.116889,42.371977 28.656054,58.719642 26.290846,30.695073 23.925637,58.719642 14.464803,42.371977 12.099594,40.036596 9.7343853,37.701216 -6.8220752,28.359692 21.560429,26.024312 Z"
               id="path172"
               style="stroke-width:0.470049" />
            <ellipse
               fill="#ffd700"
               stroke="#ffd700"
               stroke-width="1.41015"
               stroke-dasharray="0.18802, 1.41015"
               stroke-linecap="round"
               cx="26.369034"
               cy="26.101515"
               id="circle174"
               rx="3.7843339"
               ry="3.7366092" />
            <path
               d="M 11.472297,62.539734 A 10.839063,3.1984119 0 0 1 0.63380195,65.738146 10.839063,3.1984119 0 0 1 -10.205828,62.540069 10.839063,3.1984119 0 0 1 0.63153217,59.341322 10.839063,3.1984119 0 0 1 11.472297,62.539064 l -10.8390625,6.7e-4 z"
               style="fill:#008000;stroke-width:0.579997"
               id="path21"
               sodipodi:type="arc"
               sodipodi:cx="0.6332345"
               sodipodi:cy="62.539734"
               sodipodi:rx="10.839063"
               sodipodi:ry="3.1984119"
               sodipodi:start="0"
               sodipodi:end="6.2829759"
               sodipodi:arc-type="slice"
               transform="rotate(-32.477868)" />
            <path
               d="m -26.722247,-41.260887 a 10.839063,3.1984119 0 0 1 -10.838495,3.198412 10.839063,3.1984119 0 0 1 -10.83963,-3.198077 10.839063,3.1984119 0 0 1 10.83736,-3.198747 10.839063,3.1984119 0 0 1 10.840765,3.197742 l -10.839063,6.7e-4 z"
               transform="rotate(-156.0645)"
               sodipodi:arc-type="slice"
               sodipodi:end="6.2829759"
               sodipodi:start="0"
               sodipodi:ry="3.1984119"
               sodipodi:rx="10.839063"
               sodipodi:cy="-41.260887"
               sodipodi:cx="-37.56131"
               sodipodi:type="arc"
               id="path23"
               style="fill:#008000;stroke-width:0.579997"
               inkscape:transform-center-x="0.53306864" />
          </g>
          <text
             xml:space="preserve"
             style="font-style:normal;font-variant:normal;font-weight:normal;font-stretch:normal;font-size:15px;line-height:1.25;font-family:sans-serif;fill:#0000ff;fill-opacity:1;stroke:none;stroke-width:0.0340813"
             x="89.102654"
             y="38.642754"
             id="text27"
             transform="matrix(0.64836081,0,-0.51619664,1.5423511,0,0)"><tspan
               sodipodi:role="line"
               id="tspan25"
               x="89.102654"
               y="38.642754"
               style="fill:#0000ff;stroke-width:0.0340813">Local Meetup</tspan></text>
        </g>
      </g>
    </g>
  </g>
</svg>
